<!--?xml version="1.0" standalone="no"?-->
              <svg id="sw-js-blob-svg" viewBox="0 0 100 100" xmlns="http://www.w3.org/2000/svg" version="1.1">
                    <defs> 
                        <linearGradient id="sw-gradient" x1="0" x2="1" y1="1" y2="0">
                            <stop id="stop1" stop-color="rgba(242, 41, 78, 0.55)" offset="0%"></stop>
                            <stop id="stop2" stop-color="rgba(242, 128, 102, 1)" offset="100%"></stop>
                        </linearGradient>
                    </defs>
                <path fill="url(#sw-gradient)" d="M24,-32.3C30.3,-28.5,34,-20.4,32.8,-13.2C31.7,-6,25.8,0.2,23.7,7.9C21.5,15.7,23.1,24.9,19.8,31.4C16.5,37.9,8.2,41.8,0.5,41C-7.2,40.3,-14.3,34.9,-20.9,29.5C-27.4,24,-33.2,18.3,-33.5,12.2C-33.7,6,-28.3,-0.7,-24.9,-7.2C-21.6,-13.6,-20.2,-19.8,-16.4,-24.4C-12.6,-28.9,-6.3,-31.9,1.3,-33.7C8.9,-35.4,17.8,-36.1,24,-32.3Z" width="100%" height="100%" transform="translate(50 50)" style="transition: all 0.3s ease 0s;" stroke-width="0" stroke="url(#sw-gradient)"></path>
              </svg>